<mxfile host="Electron" agent="Mozilla/5.0 (Windows NT 10.0; Win64; x64) AppleWebKit/537.36 (KHTML, like Gecko) draw.io/24.7.17 Chrome/128.0.6613.36 Electron/32.0.1 Safari/537.36" version="24.7.17">
  <diagram name="ページ1" id="IV6lWoDXe67HYKbLez5y">
    <mxGraphModel dx="2155" dy="1174" grid="1" gridSize="10" guides="1" tooltips="1" connect="1" arrows="1" fold="1" page="1" pageScale="1" pageWidth="827" pageHeight="1169" math="0" shadow="0">
      <root>
        <mxCell id="0" />
        <mxCell id="1" parent="0" />
        <mxCell id="64ifQPON9ACqAJZqtu7B-46" value="" style="shape=offPageConnector;whiteSpace=wrap;html=1;" vertex="1" parent="1">
          <mxGeometry x="590" y="730" width="210" height="220" as="geometry" />
        </mxCell>
        <mxCell id="64ifQPON9ACqAJZqtu7B-1" value="OS File System" style="shape=cylinder;whiteSpace=wrap;html=1;boundedLbl=1;backgroundOutline=1;" vertex="1" parent="1">
          <mxGeometry x="590" y="960" width="210" height="150" as="geometry" />
        </mxCell>
        <mxCell id="64ifQPON9ACqAJZqtu7B-6" value="cash" style="shape=internalStorage;whiteSpace=wrap;html=1;dx=20;dy=20;rounded=0;arcSize=8;strokeWidth=2;" vertex="1" parent="1">
          <mxGeometry x="200" y="960" width="120" height="150" as="geometry" />
        </mxCell>
        <mxCell id="64ifQPON9ACqAJZqtu7B-8" value="" style="strokeWidth=2;html=1;shape=mxgraph.flowchart.annotation_1;align=left;pointerEvents=1;" vertex="1" parent="1">
          <mxGeometry x="120" y="720" width="60" height="390" as="geometry" />
        </mxCell>
        <mxCell id="64ifQPON9ACqAJZqtu7B-18" value="Storage Engine" style="text;html=1;align=center;verticalAlign=middle;resizable=0;points=[];autosize=1;strokeColor=none;fillColor=none;" vertex="1" parent="1">
          <mxGeometry x="115" y="690" width="110" height="30" as="geometry" />
        </mxCell>
        <mxCell id="64ifQPON9ACqAJZqtu7B-20" value="" style="strokeWidth=2;html=1;shape=mxgraph.flowchart.annotation_1;align=left;pointerEvents=1;" vertex="1" parent="1">
          <mxGeometry x="120" y="390" width="60" height="270" as="geometry" />
        </mxCell>
        <mxCell id="64ifQPON9ACqAJZqtu7B-24" value="API interface" style="rounded=0;whiteSpace=wrap;html=1;" vertex="1" parent="1">
          <mxGeometry x="200" y="390" width="240" height="100" as="geometry" />
        </mxCell>
        <mxCell id="64ifQPON9ACqAJZqtu7B-28" value="QueryDecoder" style="rounded=0;whiteSpace=wrap;html=1;" vertex="1" parent="1">
          <mxGeometry x="200" y="720" width="240" height="80" as="geometry" />
        </mxCell>
        <mxCell id="64ifQPON9ACqAJZqtu7B-34" value="idvd&lt;br&gt;(idis&amp;nbsp;virtual drive)" style="html=1;dashed=0;whiteSpace=wrap;shape=mxgraph.dfd.externalEntity" vertex="1" parent="1">
          <mxGeometry x="600" y="740" width="160" height="120" as="geometry" />
        </mxCell>
        <mxCell id="64ifQPON9ACqAJZqtu7B-35" value="Id" style="autosize=1;part=1;resizable=0;strokeColor=inherit;fillColor=inherit;gradientColor=inherit;" vertex="1" parent="64ifQPON9ACqAJZqtu7B-34">
          <mxGeometry width="20" height="20" relative="1" as="geometry">
            <mxPoint x="15" y="15" as="offset" />
          </mxGeometry>
        </mxCell>
        <mxCell id="64ifQPON9ACqAJZqtu7B-36" value="Data" style="shape=parallelogram;html=1;strokeWidth=2;perimeter=parallelogramPerimeter;whiteSpace=wrap;rounded=0;arcSize=12;size=0.23;" vertex="1" parent="64ifQPON9ACqAJZqtu7B-34">
          <mxGeometry x="60" y="76.36363636363636" width="90" height="32.72727272727273" as="geometry" />
        </mxCell>
        <mxCell id="64ifQPON9ACqAJZqtu7B-37" value="&lt;div&gt;&lt;br&gt;&lt;/div&gt;&lt;div&gt;&lt;br&gt;&lt;/div&gt;idvd&lt;br&gt;(idis&amp;nbsp;virtual drive)" style="html=1;dashed=0;whiteSpace=wrap;shape=mxgraph.dfd.externalEntity" vertex="1" parent="1">
          <mxGeometry x="610" y="750" width="160" height="120" as="geometry" />
        </mxCell>
        <mxCell id="64ifQPON9ACqAJZqtu7B-38" value="Collection" style="autosize=1;part=1;resizable=0;strokeColor=inherit;fillColor=inherit;gradientColor=inherit;rounded=0;" vertex="1" parent="64ifQPON9ACqAJZqtu7B-37">
          <mxGeometry width="80" height="30" relative="1" as="geometry">
            <mxPoint x="15" y="15" as="offset" />
          </mxGeometry>
        </mxCell>
        <mxCell id="64ifQPON9ACqAJZqtu7B-40" value="Raw TON&amp;nbsp;controller&amp;nbsp;" style="rounded=0;whiteSpace=wrap;html=1;" vertex="1" parent="1">
          <mxGeometry x="320" y="820" width="120" height="120" as="geometry" />
        </mxCell>
        <mxCell id="64ifQPON9ACqAJZqtu7B-41" value="" style="shape=flexArrow;endArrow=classic;startArrow=classic;html=1;rounded=0;entryX=-0.027;entryY=0.754;entryDx=0;entryDy=0;exitX=0.5;exitY=0;exitDx=0;exitDy=0;entryPerimeter=0;" edge="1" parent="1" source="64ifQPON9ACqAJZqtu7B-6" target="64ifQPON9ACqAJZqtu7B-40">
          <mxGeometry width="100" height="100" relative="1" as="geometry">
            <mxPoint x="200" y="950" as="sourcePoint" />
            <mxPoint x="300" y="850" as="targetPoint" />
            <Array as="points">
              <mxPoint x="260" y="910" />
            </Array>
          </mxGeometry>
        </mxCell>
        <mxCell id="64ifQPON9ACqAJZqtu7B-42" value="TON" style="edgeLabel;html=1;align=center;verticalAlign=middle;resizable=0;points=[];" vertex="1" connectable="0" parent="64ifQPON9ACqAJZqtu7B-41">
          <mxGeometry x="-0.198" y="-3" relative="1" as="geometry">
            <mxPoint x="7" as="offset" />
          </mxGeometry>
        </mxCell>
        <mxCell id="64ifQPON9ACqAJZqtu7B-43" value="" style="endArrow=classic;html=1;rounded=0;exitX=0.268;exitY=0.995;exitDx=0;exitDy=0;exitPerimeter=0;entryX=-0.014;entryY=0.223;entryDx=0;entryDy=0;entryPerimeter=0;" edge="1" parent="1" source="64ifQPON9ACqAJZqtu7B-28" target="64ifQPON9ACqAJZqtu7B-40">
          <mxGeometry width="50" height="50" relative="1" as="geometry">
            <mxPoint x="220" y="860" as="sourcePoint" />
            <mxPoint x="270" y="810" as="targetPoint" />
            <Array as="points">
              <mxPoint x="264" y="847" />
            </Array>
          </mxGeometry>
        </mxCell>
        <mxCell id="64ifQPON9ACqAJZqtu7B-44" value="Decoded Query" style="edgeLabel;html=1;align=center;verticalAlign=middle;resizable=0;points=[];" vertex="1" connectable="0" parent="64ifQPON9ACqAJZqtu7B-43">
          <mxGeometry x="-0.3542" y="-2" relative="1" as="geometry">
            <mxPoint as="offset" />
          </mxGeometry>
        </mxCell>
        <mxCell id="64ifQPON9ACqAJZqtu7B-50" value="" style="shape=link;html=1;rounded=0;width=20;" edge="1" parent="1">
          <mxGeometry width="100" relative="1" as="geometry">
            <mxPoint x="520" y="390" as="sourcePoint" />
            <mxPoint x="520" y="1110" as="targetPoint" />
          </mxGeometry>
        </mxCell>
        <mxCell id="64ifQPON9ACqAJZqtu7B-51" value="" style="shape=flexArrow;endArrow=classic;startArrow=classic;html=1;rounded=0;entryX=-0.003;entryY=0.719;entryDx=0;entryDy=0;entryPerimeter=0;exitX=1;exitY=0.75;exitDx=0;exitDy=0;" edge="1" parent="1" source="64ifQPON9ACqAJZqtu7B-40" target="64ifQPON9ACqAJZqtu7B-34">
          <mxGeometry width="100" height="100" relative="1" as="geometry">
            <mxPoint x="480" y="920" as="sourcePoint" />
            <mxPoint x="580" y="820" as="targetPoint" />
            <Array as="points">
              <mxPoint x="550" y="910" />
              <mxPoint x="550" y="826" />
            </Array>
          </mxGeometry>
        </mxCell>
        <mxCell id="64ifQPON9ACqAJZqtu7B-52" value="TON" style="edgeLabel;html=1;align=center;verticalAlign=middle;resizable=0;points=[];" vertex="1" connectable="0" parent="64ifQPON9ACqAJZqtu7B-51">
          <mxGeometry x="-0.1705" y="1" relative="1" as="geometry">
            <mxPoint x="9" y="6" as="offset" />
          </mxGeometry>
        </mxCell>
        <mxCell id="64ifQPON9ACqAJZqtu7B-53" value="" style="shape=flexArrow;endArrow=classic;startArrow=classic;html=1;rounded=0;exitX=1;exitY=0.25;exitDx=0;exitDy=0;" edge="1" parent="1" source="64ifQPON9ACqAJZqtu7B-40">
          <mxGeometry width="100" height="100" relative="1" as="geometry">
            <mxPoint x="460" y="850" as="sourcePoint" />
            <mxPoint x="510" y="850" as="targetPoint" />
          </mxGeometry>
        </mxCell>
        <mxCell id="64ifQPON9ACqAJZqtu7B-59" value="TON" style="edgeLabel;html=1;align=center;verticalAlign=middle;resizable=0;points=[];" vertex="1" connectable="0" parent="64ifQPON9ACqAJZqtu7B-53">
          <mxGeometry x="-0.019" y="2" relative="1" as="geometry">
            <mxPoint y="12" as="offset" />
          </mxGeometry>
        </mxCell>
        <mxCell id="64ifQPON9ACqAJZqtu7B-54" value="" style="shape=flexArrow;endArrow=classic;startArrow=classic;html=1;rounded=0;exitX=1;exitY=0.25;exitDx=0;exitDy=0;" edge="1" parent="1">
          <mxGeometry width="100" height="100" relative="1" as="geometry">
            <mxPoint x="440" y="1034.76" as="sourcePoint" />
            <mxPoint x="510" y="1034.76" as="targetPoint" />
          </mxGeometry>
        </mxCell>
        <mxCell id="64ifQPON9ACqAJZqtu7B-55" value="file" style="edgeLabel;html=1;align=center;verticalAlign=middle;resizable=0;points=[];" vertex="1" connectable="0" parent="64ifQPON9ACqAJZqtu7B-54">
          <mxGeometry x="-0.019" y="3" relative="1" as="geometry">
            <mxPoint as="offset" />
          </mxGeometry>
        </mxCell>
        <mxCell id="64ifQPON9ACqAJZqtu7B-56" value="cash" style="shape=internalStorage;whiteSpace=wrap;html=1;dx=20;dy=20;rounded=0;arcSize=8;strokeWidth=2;" vertex="1" parent="1">
          <mxGeometry x="320" y="960" width="120" height="150" as="geometry" />
        </mxCell>
        <mxCell id="64ifQPON9ACqAJZqtu7B-57" value="file" style="shape=parallelogram;html=1;strokeWidth=2;perimeter=parallelogramPerimeter;whiteSpace=wrap;rounded=0;arcSize=12;size=0.23;" vertex="1" parent="1">
          <mxGeometry x="340" y="1070" width="90" height="30" as="geometry" />
        </mxCell>
        <mxCell id="64ifQPON9ACqAJZqtu7B-58" value="TON" style="shape=parallelogram;html=1;strokeWidth=2;perimeter=parallelogramPerimeter;whiteSpace=wrap;rounded=0;arcSize=12;size=0.23;" vertex="1" parent="1">
          <mxGeometry x="220" y="1070" width="90" height="30" as="geometry" />
        </mxCell>
        <mxCell id="64ifQPON9ACqAJZqtu7B-60" value="" style="shape=flexArrow;endArrow=classic;startArrow=classic;html=1;rounded=0;entryX=0;entryY=0;entryDx=0;entryDy=27.5;entryPerimeter=0;" edge="1" parent="1" target="64ifQPON9ACqAJZqtu7B-34">
          <mxGeometry width="100" height="100" relative="1" as="geometry">
            <mxPoint x="530" y="768" as="sourcePoint" />
            <mxPoint x="570" y="750" as="targetPoint" />
          </mxGeometry>
        </mxCell>
        <mxCell id="64ifQPON9ACqAJZqtu7B-61" value="file" style="edgeLabel;html=1;align=center;verticalAlign=middle;resizable=0;points=[];" vertex="1" connectable="0" parent="64ifQPON9ACqAJZqtu7B-60">
          <mxGeometry x="0.1582" y="2" relative="1" as="geometry">
            <mxPoint as="offset" />
          </mxGeometry>
        </mxCell>
        <mxCell id="64ifQPON9ACqAJZqtu7B-63" value="" style="endArrow=classic;html=1;rounded=0;entryX=0;entryY=0;entryDx=0;entryDy=55;entryPerimeter=0;exitX=0.996;exitY=0.933;exitDx=0;exitDy=0;exitPerimeter=0;" edge="1" parent="1" source="64ifQPON9ACqAJZqtu7B-28" target="64ifQPON9ACqAJZqtu7B-34">
          <mxGeometry width="50" height="50" relative="1" as="geometry">
            <mxPoint x="440" y="790" as="sourcePoint" />
            <mxPoint x="490" y="740" as="targetPoint" />
          </mxGeometry>
        </mxCell>
        <mxCell id="64ifQPON9ACqAJZqtu7B-64" value="Decoded Query" style="edgeLabel;html=1;align=center;verticalAlign=middle;resizable=0;points=[];" vertex="1" connectable="0" parent="64ifQPON9ACqAJZqtu7B-63">
          <mxGeometry x="-0.3839" y="-1" relative="1" as="geometry">
            <mxPoint x="-19" y="14" as="offset" />
          </mxGeometry>
        </mxCell>
        <mxCell id="64ifQPON9ACqAJZqtu7B-65" value="IDIS-DB" style="text;html=1;align=center;verticalAlign=middle;resizable=0;points=[];autosize=1;strokeColor=none;fillColor=none;" vertex="1" parent="1">
          <mxGeometry x="115" y="360" width="70" height="30" as="geometry" />
        </mxCell>
        <mxCell id="64ifQPON9ACqAJZqtu7B-66" value="Permission&lt;br&gt;Controller" style="rounded=0;whiteSpace=wrap;html=1;" vertex="1" parent="1">
          <mxGeometry x="360" y="550" width="80" height="110" as="geometry" />
        </mxCell>
        <mxCell id="64ifQPON9ACqAJZqtu7B-67" value="Permission&lt;br&gt;Table" style="shape=internalStorage;whiteSpace=wrap;html=1;dx=20;dy=20;rounded=0;arcSize=8;strokeWidth=2;" vertex="1" parent="1">
          <mxGeometry x="200" y="550" width="110" height="110" as="geometry" />
        </mxCell>
        <mxCell id="64ifQPON9ACqAJZqtu7B-69" value="" style="shape=flexArrow;endArrow=classic;startArrow=classic;html=1;rounded=0;exitX=1;exitY=0.5;exitDx=0;exitDy=0;entryX=0;entryY=0.5;entryDx=0;entryDy=0;" edge="1" parent="1" source="64ifQPON9ACqAJZqtu7B-67" target="64ifQPON9ACqAJZqtu7B-66">
          <mxGeometry width="100" height="100" relative="1" as="geometry">
            <mxPoint x="320" y="610" as="sourcePoint" />
            <mxPoint x="420" y="510" as="targetPoint" />
          </mxGeometry>
        </mxCell>
        <mxCell id="64ifQPON9ACqAJZqtu7B-70" value="" style="strokeWidth=2;html=1;shape=mxgraph.flowchart.annotation_1;align=left;pointerEvents=1;" vertex="1" parent="1">
          <mxGeometry x="110" y="360" width="70" height="770" as="geometry" />
        </mxCell>
        <mxCell id="64ifQPON9ACqAJZqtu7B-72" value="IDIS" style="text;html=1;align=center;verticalAlign=middle;resizable=0;points=[];autosize=1;strokeColor=none;fillColor=none;" vertex="1" parent="1">
          <mxGeometry x="100" y="330" width="50" height="30" as="geometry" />
        </mxCell>
        <mxCell id="64ifQPON9ACqAJZqtu7B-74" value="Shad Controller" style="rounded=0;whiteSpace=wrap;html=1;fontStyle=1" vertex="1" parent="1">
          <mxGeometry x="590" y="390" width="210" height="100" as="geometry" />
        </mxCell>
        <mxCell id="64ifQPON9ACqAJZqtu7B-75" value="" style="shape=flexArrow;endArrow=classic;startArrow=classic;html=1;rounded=0;" edge="1" parent="1">
          <mxGeometry width="100" height="100" relative="1" as="geometry">
            <mxPoint x="440" y="440" as="sourcePoint" />
            <mxPoint x="510" y="440" as="targetPoint" />
          </mxGeometry>
        </mxCell>
        <mxCell id="64ifQPON9ACqAJZqtu7B-78" value="Data" style="edgeLabel;html=1;align=center;verticalAlign=middle;resizable=0;points=[];" vertex="1" connectable="0" parent="64ifQPON9ACqAJZqtu7B-75">
          <mxGeometry x="-0.0054" y="1" relative="1" as="geometry">
            <mxPoint y="11" as="offset" />
          </mxGeometry>
        </mxCell>
        <mxCell id="64ifQPON9ACqAJZqtu7B-77" value="" style="shape=flexArrow;endArrow=classic;startArrow=classic;html=1;rounded=0;entryX=1.003;entryY=0.571;entryDx=0;entryDy=0;entryPerimeter=0;" edge="1" parent="1" target="64ifQPON9ACqAJZqtu7B-66">
          <mxGeometry width="100" height="100" relative="1" as="geometry">
            <mxPoint x="510" y="613" as="sourcePoint" />
            <mxPoint x="399.76" y="660" as="targetPoint" />
          </mxGeometry>
        </mxCell>
        <mxCell id="64ifQPON9ACqAJZqtu7B-82" value="TON(meta)" style="edgeLabel;html=1;align=center;verticalAlign=middle;resizable=0;points=[];" vertex="1" connectable="0" parent="64ifQPON9ACqAJZqtu7B-77">
          <mxGeometry x="0.3092" relative="1" as="geometry">
            <mxPoint x="-14" y="13" as="offset" />
          </mxGeometry>
        </mxCell>
        <mxCell id="64ifQPON9ACqAJZqtu7B-79" value="" style="endArrow=classic;html=1;rounded=0;exitX=0.75;exitY=1;exitDx=0;exitDy=0;entryX=1;entryY=0.5;entryDx=0;entryDy=0;" edge="1" parent="1" source="64ifQPON9ACqAJZqtu7B-24" target="64ifQPON9ACqAJZqtu7B-28">
          <mxGeometry width="50" height="50" relative="1" as="geometry">
            <mxPoint x="320" y="550" as="sourcePoint" />
            <mxPoint x="370" y="500" as="targetPoint" />
            <Array as="points">
              <mxPoint x="380" y="520" />
              <mxPoint x="480" y="520" />
              <mxPoint x="480" y="760" />
            </Array>
          </mxGeometry>
        </mxCell>
        <mxCell id="64ifQPON9ACqAJZqtu7B-80" value="Query" style="edgeLabel;html=1;align=center;verticalAlign=middle;resizable=0;points=[];" vertex="1" connectable="0" parent="64ifQPON9ACqAJZqtu7B-79">
          <mxGeometry x="-0.6374" y="-1" relative="1" as="geometry">
            <mxPoint as="offset" />
          </mxGeometry>
        </mxCell>
        <mxCell id="64ifQPON9ACqAJZqtu7B-85" value="" style="endArrow=classic;html=1;rounded=0;exitX=0.833;exitY=0;exitDx=0;exitDy=0;exitPerimeter=0;" edge="1" parent="1" source="64ifQPON9ACqAJZqtu7B-28">
          <mxGeometry width="50" height="50" relative="1" as="geometry">
            <mxPoint x="350" y="710" as="sourcePoint" />
            <mxPoint x="400" y="660" as="targetPoint" />
          </mxGeometry>
        </mxCell>
        <mxCell id="64ifQPON9ACqAJZqtu7B-86" value="Check Permission" style="edgeLabel;html=1;align=center;verticalAlign=middle;resizable=0;points=[];" vertex="1" connectable="0" parent="64ifQPON9ACqAJZqtu7B-85">
          <mxGeometry x="0.0215" relative="1" as="geometry">
            <mxPoint y="16" as="offset" />
          </mxGeometry>
        </mxCell>
        <mxCell id="64ifQPON9ACqAJZqtu7B-87" value="Transaction&lt;br&gt;Table&amp;nbsp;" style="shape=internalStorage;whiteSpace=wrap;html=1;backgroundOutline=1;" vertex="1" parent="1">
          <mxGeometry x="720" y="550" width="80" height="110" as="geometry" />
        </mxCell>
        <mxCell id="64ifQPON9ACqAJZqtu7B-88" value="Transaction Manager&amp;nbsp;" style="rounded=0;whiteSpace=wrap;html=1;" vertex="1" parent="1">
          <mxGeometry x="590" y="550" width="80" height="110" as="geometry" />
        </mxCell>
        <mxCell id="64ifQPON9ACqAJZqtu7B-89" value="" style="shape=flexArrow;endArrow=classic;startArrow=classic;html=1;rounded=0;" edge="1" parent="1">
          <mxGeometry width="100" height="100" relative="1" as="geometry">
            <mxPoint x="530" y="439.8" as="sourcePoint" />
            <mxPoint x="590" y="440" as="targetPoint" />
          </mxGeometry>
        </mxCell>
        <mxCell id="64ifQPON9ACqAJZqtu7B-90" value="Data" style="edgeLabel;html=1;align=center;verticalAlign=middle;resizable=0;points=[];" vertex="1" connectable="0" parent="64ifQPON9ACqAJZqtu7B-89">
          <mxGeometry x="-0.0054" y="1" relative="1" as="geometry">
            <mxPoint y="11" as="offset" />
          </mxGeometry>
        </mxCell>
        <mxCell id="64ifQPON9ACqAJZqtu7B-92" value="" style="shape=flexArrow;endArrow=classic;startArrow=classic;html=1;rounded=0;entryX=1.003;entryY=0.571;entryDx=0;entryDy=0;entryPerimeter=0;" edge="1" parent="1">
          <mxGeometry width="100" height="100" relative="1" as="geometry">
            <mxPoint x="590" y="610" as="sourcePoint" />
            <mxPoint x="530" y="610" as="targetPoint" />
          </mxGeometry>
        </mxCell>
        <mxCell id="64ifQPON9ACqAJZqtu7B-93" value="TON(meta)" style="edgeLabel;html=1;align=center;verticalAlign=middle;resizable=0;points=[];" vertex="1" connectable="0" parent="64ifQPON9ACqAJZqtu7B-92">
          <mxGeometry x="0.3092" relative="1" as="geometry">
            <mxPoint x="19" y="13" as="offset" />
          </mxGeometry>
        </mxCell>
        <mxCell id="64ifQPON9ACqAJZqtu7B-94" value="" style="shape=flexArrow;endArrow=classic;startArrow=classic;html=1;rounded=0;exitX=1;exitY=0.5;exitDx=0;exitDy=0;entryX=0;entryY=0.5;entryDx=0;entryDy=0;" edge="1" parent="1" target="64ifQPON9ACqAJZqtu7B-87">
          <mxGeometry width="100" height="100" relative="1" as="geometry">
            <mxPoint x="670" y="604.8" as="sourcePoint" />
            <mxPoint x="720" y="604.8" as="targetPoint" />
          </mxGeometry>
        </mxCell>
        <mxCell id="64ifQPON9ACqAJZqtu7B-95" value="" style="endArrow=classic;startArrow=classic;html=1;rounded=0;exitX=0.5;exitY=0;exitDx=0;exitDy=0;" edge="1" parent="1" source="64ifQPON9ACqAJZqtu7B-88">
          <mxGeometry width="50" height="50" relative="1" as="geometry">
            <mxPoint x="580" y="540" as="sourcePoint" />
            <mxPoint x="630" y="490" as="targetPoint" />
          </mxGeometry>
        </mxCell>
        <mxCell id="64ifQPON9ACqAJZqtu7B-96" value="" style="endArrow=classic;startArrow=classic;html=1;rounded=0;exitX=1.012;exitY=0.755;exitDx=0;exitDy=0;exitPerimeter=0;entryX=0;entryY=0.75;entryDx=0;entryDy=0;" edge="1" parent="1" source="64ifQPON9ACqAJZqtu7B-24" target="64ifQPON9ACqAJZqtu7B-74">
          <mxGeometry width="50" height="50" relative="1" as="geometry">
            <mxPoint x="560" y="550" as="sourcePoint" />
            <mxPoint x="610" y="500" as="targetPoint" />
          </mxGeometry>
        </mxCell>
        <mxCell id="64ifQPON9ACqAJZqtu7B-97" value="" style="endArrow=classic;html=1;rounded=0;entryX=0;entryY=0.75;entryDx=0;entryDy=0;exitX=1;exitY=0.25;exitDx=0;exitDy=0;" edge="1" parent="1" source="64ifQPON9ACqAJZqtu7B-28" target="64ifQPON9ACqAJZqtu7B-88">
          <mxGeometry width="50" height="50" relative="1" as="geometry">
            <mxPoint x="480" y="520" as="sourcePoint" />
            <mxPoint x="580" y="510" as="targetPoint" />
            <Array as="points">
              <mxPoint x="550" y="740" />
              <mxPoint x="550" y="700" />
              <mxPoint x="550" y="633" />
            </Array>
          </mxGeometry>
        </mxCell>
        <mxCell id="64ifQPON9ACqAJZqtu7B-98" value="Normalized Queries" style="edgeLabel;html=1;align=center;verticalAlign=middle;resizable=0;points=[];" vertex="1" connectable="0" parent="64ifQPON9ACqAJZqtu7B-97">
          <mxGeometry x="0.2302" y="1" relative="1" as="geometry">
            <mxPoint x="41" y="-2" as="offset" />
          </mxGeometry>
        </mxCell>
        <mxCell id="64ifQPON9ACqAJZqtu7B-99" value="" style="shape=doubleArrow;direction=south;whiteSpace=wrap;html=1;" vertex="1" parent="1">
          <mxGeometry x="290" y="290" width="60" height="100" as="geometry" />
        </mxCell>
        <mxCell id="64ifQPON9ACqAJZqtu7B-100" value="NetWork" style="shape=cloud;whiteSpace=wrap;html=1;" vertex="1" parent="1">
          <mxGeometry x="217.5" y="170" width="205" height="120" as="geometry" />
        </mxCell>
      </root>
    </mxGraphModel>
  </diagram>
</mxfile>
